# xmcd
#
# Track frame offsets:
#	150
#	16407
#	35907
#	54394
#	80130
#	95797
#	110009
#	132209
#	152890
#	178933
#	205615
#	222045
#	246750
#
# Disc length: 3587 seconds
#
# Revision: 0
# Processed by: cddbd v1.5.2PL0 Copyright (c) Steve Scherf et al.
# Submitted via: dBpowerAMP V4.0
#
DISCID=bb0e010d
DTITLE=Amador - Munay-Inti Punku
DYEAR=1900
DGENRE=Meditative
TTITLE0=El Condor Pasa
TTITLE1=Geronimo Laughter
TTITLE2=K'Antus
TTITLE3=Llaqui Runa
TTITLE4=D. Modena
TTITLE5=Pampa Lirima
TTITLE6=Monicano
TTITLE7=Piel Morena
TTITLE8=El Pituco
TTITLE9=Inti Punku
TTITLE10=South America
TTITLE11=Tinku Runa
TTITLE12=Valle Del Alto
EXTD=Munay-Inti Punku
EXTT0=
EXTT1=
EXTT2=
EXTT3=
EXTT4=
EXTT5=
EXTT6=
EXTT7=
EXTT8=
EXTT9=
EXTT10=
EXTT11=
EXTT12=
PLAYORDER=
